<svg width="151" height="131" viewBox="0 0 151 131" fill="none" xmlns="http://www.w3.org/2000/svg">
<rect x="7" width="135" height="131" rx="30" fill="#D0E6A5"/>
<rect x="7" width="135" height="131" rx="30" fill="url(#paint0_linear_2_13)"/>
<path d="M26.1759 97.6H28.1199V106H26.1759V97.6ZM22.3599 106H20.4159V97.6H22.3599V106ZM26.3199 102.556H22.2159V100.912H26.3199V102.556ZM33.9353 106V104.74L33.8153 104.464V102.208C33.8153 101.808 33.6913 101.496 33.4433 101.272C33.2033 101.048 32.8313 100.936 32.3273 100.936C31.9833 100.936 31.6433 100.992 31.3073 101.104C30.9793 101.208 30.6993 101.352 30.4673 101.536L29.7953 100.228C30.1473 99.98 30.5713 99.788 31.0673 99.652C31.5633 99.516 32.0673 99.448 32.5793 99.448C33.5633 99.448 34.3273 99.68 34.8713 100.144C35.4153 100.608 35.6873 101.332 35.6873 102.316V106H33.9353ZM31.9673 106.096C31.4633 106.096 31.0313 106.012 30.6713 105.844C30.3113 105.668 30.0353 105.432 29.8433 105.136C29.6513 104.84 29.5553 104.508 29.5553 104.14C29.5553 103.756 29.6473 103.42 29.8313 103.132C30.0233 102.844 30.3233 102.62 30.7313 102.46C31.1393 102.292 31.6713 102.208 32.3273 102.208H34.0433V103.3H32.5313C32.0913 103.3 31.7873 103.372 31.6193 103.516C31.4593 103.66 31.3793 103.84 31.3793 104.056C31.3793 104.296 31.4713 104.488 31.6553 104.632C31.8473 104.768 32.1073 104.836 32.4353 104.836C32.7473 104.836 33.0273 104.764 33.2753 104.62C33.5233 104.468 33.7033 104.248 33.8153 103.96L34.1033 104.824C33.9673 105.24 33.7193 105.556 33.3593 105.772C32.9993 105.988 32.5353 106.096 31.9673 106.096ZM37.3816 106V99.544H39.1696V101.368L38.9176 100.84C39.1096 100.384 39.4176 100.04 39.8416 99.808C40.2656 99.568 40.7816 99.448 41.3896 99.448V101.176C41.3096 101.168 41.2376 101.164 41.1736 101.164C41.1096 101.156 41.0416 101.152 40.9696 101.152C40.4576 101.152 40.0416 101.3 39.7216 101.596C39.4096 101.884 39.2536 102.336 39.2536 102.952V106H37.3816ZM45.4918 108.424C44.8838 108.424 44.2958 108.348 43.7278 108.196C43.1678 108.052 42.6998 107.832 42.3238 107.536L43.0678 106.192C43.3398 106.416 43.6838 106.592 44.0998 106.72C44.5238 106.856 44.9398 106.924 45.3478 106.924C46.0118 106.924 46.4918 106.776 46.7878 106.48C47.0918 106.184 47.2438 105.744 47.2438 105.16V104.188L47.3638 102.568L47.3398 100.936V99.544H49.1158V104.92C49.1158 106.12 48.8038 107.004 48.1798 107.572C47.5558 108.14 46.6598 108.424 45.4918 108.424ZM45.2038 105.688C44.6038 105.688 44.0598 105.56 43.5718 105.304C43.0918 105.04 42.7038 104.676 42.4078 104.212C42.1198 103.74 41.9758 103.192 41.9758 102.568C41.9758 101.936 42.1198 101.388 42.4078 100.924C42.7038 100.452 43.0918 100.088 43.5718 99.832C44.0598 99.576 44.6038 99.448 45.2038 99.448C45.7478 99.448 46.2278 99.56 46.6438 99.784C47.0598 100 47.3838 100.34 47.6158 100.804C47.8478 101.26 47.9638 101.848 47.9638 102.568C47.9638 103.28 47.8478 103.868 47.6158 104.332C47.3838 104.788 47.0598 105.128 46.6438 105.352C46.2278 105.576 45.7478 105.688 45.2038 105.688ZM45.5758 104.152C45.9038 104.152 46.1958 104.088 46.4518 103.96C46.7078 103.824 46.9078 103.636 47.0518 103.396C47.1958 103.156 47.2678 102.88 47.2678 102.568C47.2678 102.248 47.1958 101.972 47.0518 101.74C46.9078 101.5 46.7078 101.316 46.4518 101.188C46.1958 101.052 45.9038 100.984 45.5758 100.984C45.2478 100.984 44.9558 101.052 44.6998 101.188C44.4438 101.316 44.2398 101.5 44.0878 101.74C43.9438 101.972 43.8718 102.248 43.8718 102.568C43.8718 102.88 43.9438 103.156 44.0878 103.396C44.2398 103.636 44.4438 103.824 44.6998 103.96C44.9558 104.088 45.2478 104.152 45.5758 104.152ZM54.8181 106V104.74L54.6981 104.464V102.208C54.6981 101.808 54.5741 101.496 54.3261 101.272C54.0861 101.048 53.7141 100.936 53.2101 100.936C52.8661 100.936 52.5261 100.992 52.1901 101.104C51.8621 101.208 51.5821 101.352 51.3501 101.536L50.6781 100.228C51.0301 99.98 51.4541 99.788 51.9501 99.652C52.4461 99.516 52.9501 99.448 53.4621 99.448C54.4461 99.448 55.2101 99.68 55.7541 100.144C56.2981 100.608 56.5701 101.332 56.5701 102.316V106H54.8181ZM52.8501 106.096C52.3461 106.096 51.9141 106.012 51.5541 105.844C51.1941 105.668 50.9181 105.432 50.7261 105.136C50.5341 104.84 50.4381 104.508 50.4381 104.14C50.4381 103.756 50.5301 103.42 50.7141 103.132C50.9061 102.844 51.2061 102.62 51.6141 102.46C52.0221 102.292 52.5541 102.208 53.2101 102.208H54.9261V103.3H53.4141C52.9741 103.3 52.6701 103.372 52.5021 103.516C52.3421 103.66 52.2621 103.84 52.2621 104.056C52.2621 104.296 52.3541 104.488 52.5381 104.632C52.7301 104.768 52.9901 104.836 53.3181 104.836C53.6301 104.836 53.9101 104.764 54.1581 104.62C54.4061 104.468 54.5861 104.248 54.6981 103.96L54.9861 104.824C54.8501 105.24 54.6021 105.556 54.2421 105.772C53.8821 105.988 53.4181 106.096 52.8501 106.096ZM63.5348 106V99.184H60.8468V97.6H68.1668V99.184H65.4788V106H63.5348ZM71.6285 106.096C70.8925 106.096 70.2445 105.952 69.6845 105.664C69.1325 105.376 68.7045 104.984 68.4005 104.488C68.0965 103.984 67.9445 103.412 67.9445 102.772C67.9445 102.124 68.0925 101.552 68.3885 101.056C68.6925 100.552 69.1045 100.16 69.6245 99.88C70.1445 99.592 70.7325 99.448 71.3885 99.448C72.0205 99.448 72.5885 99.584 73.0925 99.856C73.6045 100.12 74.0085 100.504 74.3045 101.008C74.6005 101.504 74.7485 102.1 74.7485 102.796C74.7485 102.868 74.7445 102.952 74.7365 103.048C74.7285 103.136 74.7205 103.22 74.7125 103.3H69.4685V102.208H73.7285L73.0085 102.532C73.0085 102.196 72.9405 101.904 72.8045 101.656C72.6685 101.408 72.4805 101.216 72.2405 101.08C72.0005 100.936 71.7205 100.864 71.4005 100.864C71.0805 100.864 70.7965 100.936 70.5485 101.08C70.3085 101.216 70.1205 101.412 69.9845 101.668C69.8485 101.916 69.7805 102.212 69.7805 102.556V102.844C69.7805 103.196 69.8565 103.508 70.0085 103.78C70.1685 104.044 70.3885 104.248 70.6685 104.392C70.9565 104.528 71.2925 104.596 71.6765 104.596C72.0205 104.596 72.3205 104.544 72.5765 104.44C72.8405 104.336 73.0805 104.18 73.2965 103.972L74.2925 105.052C73.9965 105.388 73.6245 105.648 73.1765 105.832C72.7285 106.008 72.2125 106.096 71.6285 106.096ZM75.9949 106V99.544H77.7829V101.368L77.5309 100.84C77.7229 100.384 78.0309 100.04 78.4549 99.808C78.8789 99.568 79.3949 99.448 80.0029 99.448V101.176C79.9229 101.168 79.8509 101.164 79.7869 101.164C79.7229 101.156 79.6549 101.152 79.5829 101.152C79.0709 101.152 78.6549 101.3 78.3349 101.596C78.0229 101.884 77.8669 102.336 77.8669 102.952V106H75.9949ZM80.6828 108.424C80.3948 108.424 80.1188 108.392 79.8548 108.328C79.5908 108.272 79.3668 108.184 79.1828 108.064L79.6868 106.708C79.9028 106.86 80.1668 106.936 80.4788 106.936C80.7108 106.936 80.8948 106.856 81.0308 106.696C81.1748 106.544 81.2468 106.312 81.2468 106V99.544H83.1188V105.988C83.1188 106.732 82.9068 107.324 82.4828 107.764C82.0588 108.204 81.4588 108.424 80.6828 108.424ZM82.1828 98.644C81.8388 98.644 81.5588 98.544 81.3428 98.344C81.1268 98.144 81.0188 97.896 81.0188 97.6C81.0188 97.304 81.1268 97.056 81.3428 96.856C81.5588 96.656 81.8388 96.556 82.1828 96.556C82.5268 96.556 82.8068 96.652 83.0228 96.844C83.2388 97.028 83.3468 97.268 83.3468 97.564C83.3468 97.876 83.2388 98.136 83.0228 98.344C82.8148 98.544 82.5348 98.644 82.1828 98.644ZM88.8025 106V104.74L88.6825 104.464V102.208C88.6825 101.808 88.5585 101.496 88.3105 101.272C88.0705 101.048 87.6985 100.936 87.1945 100.936C86.8505 100.936 86.5105 100.992 86.1745 101.104C85.8465 101.208 85.5665 101.352 85.3345 101.536L84.6625 100.228C85.0145 99.98 85.4385 99.788 85.9345 99.652C86.4305 99.516 86.9345 99.448 87.4465 99.448C88.4305 99.448 89.1945 99.68 89.7385 100.144C90.2825 100.608 90.5545 101.332 90.5545 102.316V106H88.8025ZM86.8345 106.096C86.3305 106.096 85.8985 106.012 85.5385 105.844C85.1785 105.668 84.9025 105.432 84.7105 105.136C84.5185 104.84 84.4225 104.508 84.4225 104.14C84.4225 103.756 84.5145 103.42 84.6985 103.132C84.8905 102.844 85.1905 102.62 85.5985 102.46C86.0065 102.292 86.5385 102.208 87.1945 102.208H88.9105V103.3H87.3985C86.9585 103.3 86.6545 103.372 86.4865 103.516C86.3265 103.66 86.2465 103.84 86.2465 104.056C86.2465 104.296 86.3385 104.488 86.5225 104.632C86.7145 104.768 86.9745 104.836 87.3025 104.836C87.6145 104.836 87.8945 104.764 88.1425 104.62C88.3905 104.468 88.5705 104.248 88.6825 103.96L88.9705 104.824C88.8345 105.24 88.5865 105.556 88.2265 105.772C87.8665 105.988 87.4025 106.096 86.8345 106.096ZM96.1728 99.448C96.6848 99.448 97.1408 99.552 97.5408 99.76C97.9488 99.96 98.2688 100.272 98.5008 100.696C98.7328 101.112 98.8488 101.648 98.8488 102.304V106H96.9768V102.592C96.9768 102.072 96.8608 101.688 96.6288 101.44C96.4048 101.192 96.0848 101.068 95.6688 101.068C95.3728 101.068 95.1048 101.132 94.8648 101.26C94.6328 101.38 94.4488 101.568 94.3128 101.824C94.1848 102.08 94.1208 102.408 94.1208 102.808V106H92.2488V99.544H94.0368V101.332L93.7008 100.792C93.9328 100.36 94.2648 100.028 94.6968 99.796C95.1288 99.564 95.6208 99.448 96.1728 99.448ZM103.629 108.424C103.021 108.424 102.433 108.348 101.865 108.196C101.305 108.052 100.837 107.832 100.461 107.536L101.205 106.192C101.477 106.416 101.821 106.592 102.237 106.72C102.661 106.856 103.077 106.924 103.485 106.924C104.149 106.924 104.629 106.776 104.925 106.48C105.229 106.184 105.381 105.744 105.381 105.16V104.188L105.501 102.568L105.477 100.936V99.544H107.253V104.92C107.253 106.12 106.941 107.004 106.317 107.572C105.693 108.14 104.797 108.424 103.629 108.424ZM103.341 105.688C102.741 105.688 102.197 105.56 101.709 105.304C101.229 105.04 100.841 104.676 100.545 104.212C100.257 103.74 100.113 103.192 100.113 102.568C100.113 101.936 100.257 101.388 100.545 100.924C100.841 100.452 101.229 100.088 101.709 99.832C102.197 99.576 102.741 99.448 103.341 99.448C103.885 99.448 104.365 99.56 104.781 99.784C105.197 100 105.521 100.34 105.753 100.804C105.985 101.26 106.101 101.848 106.101 102.568C106.101 103.28 105.985 103.868 105.753 104.332C105.521 104.788 105.197 105.128 104.781 105.352C104.365 105.576 103.885 105.688 103.341 105.688ZM103.713 104.152C104.041 104.152 104.333 104.088 104.589 103.96C104.845 103.824 105.045 103.636 105.189 103.396C105.333 103.156 105.405 102.88 105.405 102.568C105.405 102.248 105.333 101.972 105.189 101.74C105.045 101.5 104.845 101.316 104.589 101.188C104.333 101.052 104.041 100.984 103.713 100.984C103.385 100.984 103.093 101.052 102.837 101.188C102.581 101.316 102.377 101.5 102.225 101.74C102.081 101.972 102.009 102.248 102.009 102.568C102.009 102.88 102.081 103.156 102.225 103.396C102.377 103.636 102.581 103.824 102.837 103.96C103.093 104.088 103.385 104.152 103.713 104.152ZM110.543 104.68L110.591 102.4L113.603 99.544H115.835L112.943 102.484L111.971 103.276L110.543 104.68ZM108.995 106V97.096H110.867V106H108.995ZM113.807 106L111.623 103.288L112.799 101.836L116.075 106H113.807ZM120.76 106V104.74L120.64 104.464V102.208C120.64 101.808 120.516 101.496 120.268 101.272C120.028 101.048 119.656 100.936 119.152 100.936C118.808 100.936 118.468 100.992 118.132 101.104C117.804 101.208 117.524 101.352 117.292 101.536L116.62 100.228C116.972 99.98 117.396 99.788 117.892 99.652C118.388 99.516 118.892 99.448 119.404 99.448C120.388 99.448 121.152 99.68 121.696 100.144C122.24 100.608 122.512 101.332 122.512 102.316V106H120.76ZM118.792 106.096C118.288 106.096 117.856 106.012 117.496 105.844C117.136 105.668 116.86 105.432 116.668 105.136C116.476 104.84 116.38 104.508 116.38 104.14C116.38 103.756 116.472 103.42 116.656 103.132C116.848 102.844 117.148 102.62 117.556 102.46C117.964 102.292 118.496 102.208 119.152 102.208H120.868V103.3H119.356C118.916 103.3 118.612 103.372 118.444 103.516C118.284 103.66 118.204 103.84 118.204 104.056C118.204 104.296 118.296 104.488 118.48 104.632C118.672 104.768 118.932 104.836 119.26 104.836C119.572 104.836 119.852 104.764 120.1 104.62C120.348 104.468 120.528 104.248 120.64 103.96L120.928 104.824C120.792 105.24 120.544 105.556 120.184 105.772C119.824 105.988 119.36 106.096 118.792 106.096ZM126.93 106.096C126.394 106.096 125.914 105.992 125.49 105.784C125.074 105.576 124.75 105.26 124.518 104.836C124.286 104.404 124.17 103.856 124.17 103.192V99.544H126.042V102.916C126.042 103.452 126.154 103.848 126.378 104.104C126.61 104.352 126.934 104.476 127.35 104.476C127.638 104.476 127.894 104.416 128.118 104.296C128.342 104.168 128.518 103.976 128.646 103.72C128.774 103.456 128.838 103.128 128.838 102.736V99.544H130.71V106H128.934V104.224L129.258 104.74C129.042 105.188 128.722 105.528 128.298 105.76C127.882 105.984 127.426 106.096 126.93 106.096Z" fill="white"/>
<path d="M74 12.375V86.625" stroke="white" stroke-width="6" stroke-linecap="round" stroke-linejoin="round"/>
<path d="M90.6667 25.875H65.6667C62.5725 25.875 59.605 27.1195 57.4171 29.3348C55.2292 31.5501 54 34.5546 54 37.6875C54 40.8204 55.2292 43.8249 57.4171 46.0402C59.605 48.2555 62.5725 49.5 65.6667 49.5H82.3333C85.4275 49.5 88.395 50.7445 90.5829 52.9598C92.7708 55.1751 94 58.1796 94 61.3125C94 64.4454 92.7708 67.4499 90.5829 69.6652C88.395 71.8805 85.4275 73.125 82.3333 73.125H54" stroke="white" stroke-width="2" stroke-linecap="round" stroke-linejoin="round"/>
<path d="M91.6667 25.875H66.6667C63.5725 25.875 60.605 27.1195 58.4171 29.3348C56.2292 31.5501 55 34.5546 55 37.6875C55 40.8204 56.2292 43.8249 58.4171 46.0402C60.605 48.2555 63.5725 49.5 66.6667 49.5H83.3333C86.4275 49.5 89.395 50.7445 91.5829 52.9598C93.7708 55.1751 95 58.1796 95 61.3125C95 64.4454 93.7708 67.4499 91.5829 69.6652C89.395 71.8805 86.4275 73.125 83.3333 73.125H55" stroke="white" stroke-width="2" stroke-linecap="round" stroke-linejoin="round"/>
<path d="M88.6667 25.875H63.6667C60.5725 25.875 57.605 27.1195 55.4171 29.3348C53.2292 31.5501 52 34.5546 52 37.6875C52 40.8204 53.2292 43.8249 55.4171 46.0402C57.605 48.2555 60.5725 49.5 63.6667 49.5H80.3333C83.4275 49.5 86.395 50.7445 88.5829 52.9598C90.7708 55.1751 92 58.1796 92 61.3125C92 64.4454 90.7708 67.4499 88.5829 69.6652C86.395 71.8805 83.4275 73.125 80.3333 73.125H52" stroke="white" stroke-width="2" stroke-linecap="round" stroke-linejoin="round"/>
<path d="M91.6667 24.875H66.6667C63.5725 24.875 60.605 26.1195 58.4171 28.3348C56.2292 30.5501 55 33.5546 55 36.6875C55 39.8204 56.2292 42.8249 58.4171 45.0402C60.605 47.2555 63.5725 48.5 66.6667 48.5H83.3333C86.4275 48.5 89.395 49.7445 91.5829 51.9598C93.7708 54.1751 95 57.1796 95 60.3125C95 63.4454 93.7708 66.4499 91.5829 68.6652C89.395 70.8805 86.4275 72.125 83.3333 72.125H55" stroke="white" stroke-width="4" stroke-linecap="round" stroke-linejoin="round"/>
<path d="M87.6667 24.875H62.6667C59.5725 24.875 56.605 26.1195 54.4171 28.3348C52.2292 30.5501 51 33.5546 51 36.6875C51 39.8204 52.2292 42.8249 54.4171 45.0402C56.605 47.2555 59.5725 48.5 62.6667 48.5H79.3333C82.4275 48.5 85.395 49.7445 87.5829 51.9598C89.7708 54.1751 91 57.1796 91 60.3125C91 63.4454 89.7708 66.4499 87.5829 68.6652C85.395 70.8805 82.4275 72.125 79.3333 72.125H51" stroke="white" stroke-width="4" stroke-linecap="round" stroke-linejoin="round"/>
<defs>
<linearGradient id="paint0_linear_2_13" x1="7" y1="65.5" x2="196.329" y2="65.5" gradientUnits="userSpaceOnUse">
<stop offset="0.0936243" stop-color="#00AFB9"/>
<stop offset="1" stop-color="#F4F4F4" stop-opacity="0"/>
</linearGradient>
</defs>
</svg>
