<svg width="123" height="120" viewBox="0 0 123 120" fill="none" xmlns="http://www.w3.org/2000/svg">
<rect width="123" height="120" rx="30" fill="#D0E6A5"/>
<rect width="123" height="120" rx="30" fill="url(#paint0_linear_10_8)"/>
<path d="M24.7529 101V93.2L25.4369 93.908H22.9769V92.6H26.3129V101H24.7529ZM31.4832 101.12C30.8192 101.12 30.2192 100.952 29.6832 100.616C29.1552 100.28 28.7392 99.792 28.4352 99.152C28.1312 98.504 27.9792 97.72 27.9792 96.8C27.9792 95.88 28.1312 95.1 28.4352 94.46C28.7392 93.812 29.1552 93.32 29.6832 92.984C30.2192 92.648 30.8192 92.48 31.4832 92.48C32.1552 92.48 32.7552 92.648 33.2832 92.984C33.8112 93.32 34.2272 93.812 34.5312 94.46C34.8432 95.1 34.9992 95.88 34.9992 96.8C34.9992 97.72 34.8432 98.504 34.5312 99.152C34.2272 99.792 33.8112 100.28 33.2832 100.616C32.7552 100.952 32.1552 101.12 31.4832 101.12ZM31.4832 99.764C31.8752 99.764 32.2152 99.66 32.5032 99.452C32.7912 99.236 33.0152 98.908 33.1752 98.468C33.3432 98.028 33.4272 97.472 33.4272 96.8C33.4272 96.12 33.3432 95.564 33.1752 95.132C33.0152 94.692 32.7912 94.368 32.5032 94.16C32.2152 93.944 31.8752 93.836 31.4832 93.836C31.1072 93.836 30.7712 93.944 30.4752 94.16C30.1872 94.368 29.9592 94.692 29.7912 95.132C29.6312 95.564 29.5512 96.12 29.5512 96.8C29.5512 97.472 29.6312 98.028 29.7912 98.468C29.9592 98.908 30.1872 99.236 30.4752 99.452C30.7712 99.66 31.1072 99.764 31.4832 99.764ZM39.5574 101.12C38.8934 101.12 38.2934 100.952 37.7574 100.616C37.2294 100.28 36.8134 99.792 36.5094 99.152C36.2054 98.504 36.0534 97.72 36.0534 96.8C36.0534 95.88 36.2054 95.1 36.5094 94.46C36.8134 93.812 37.2294 93.32 37.7574 92.984C38.2934 92.648 38.8934 92.48 39.5574 92.48C40.2294 92.48 40.8294 92.648 41.3574 92.984C41.8854 93.32 42.3014 93.812 42.6054 94.46C42.9174 95.1 43.0734 95.88 43.0734 96.8C43.0734 97.72 42.9174 98.504 42.6054 99.152C42.3014 99.792 41.8854 100.28 41.3574 100.616C40.8294 100.952 40.2294 101.12 39.5574 101.12ZM39.5574 99.764C39.9494 99.764 40.2894 99.66 40.5774 99.452C40.8654 99.236 41.0894 98.908 41.2494 98.468C41.4174 98.028 41.5014 97.472 41.5014 96.8C41.5014 96.12 41.4174 95.564 41.2494 95.132C41.0894 94.692 40.8654 94.368 40.5774 94.16C40.2894 93.944 39.9494 93.836 39.5574 93.836C39.1814 93.836 38.8454 93.944 38.5494 94.16C38.2614 94.368 38.0334 94.692 37.8654 95.132C37.7054 95.564 37.6254 96.12 37.6254 96.8C37.6254 97.472 37.7054 98.028 37.8654 98.468C38.0334 98.908 38.2614 99.236 38.5494 99.452C38.8454 99.66 39.1814 99.764 39.5574 99.764ZM45.3036 101L51.0396 92.6H52.2156L46.4796 101H45.3036ZM45.9996 97.124C45.6076 97.124 45.2596 97.028 44.9556 96.836C44.6516 96.644 44.4156 96.376 44.2476 96.032C44.0796 95.688 43.9956 95.284 43.9956 94.82C43.9956 94.356 44.0796 93.952 44.2476 93.608C44.4156 93.264 44.6516 92.996 44.9556 92.804C45.2596 92.612 45.6076 92.516 45.9996 92.516C46.4076 92.516 46.7596 92.612 47.0556 92.804C47.3596 92.996 47.5956 93.264 47.7636 93.608C47.9316 93.952 48.0156 94.356 48.0156 94.82C48.0156 95.284 47.9316 95.688 47.7636 96.032C47.5956 96.376 47.3596 96.644 47.0556 96.836C46.7596 97.028 46.4076 97.124 45.9996 97.124ZM46.0116 96.284C46.3316 96.284 46.5796 96.16 46.7556 95.912C46.9396 95.656 47.0316 95.292 47.0316 94.82C47.0316 94.348 46.9396 93.988 46.7556 93.74C46.5796 93.484 46.3316 93.356 46.0116 93.356C45.6916 93.356 45.4356 93.484 45.2436 93.74C45.0596 93.996 44.9676 94.356 44.9676 94.82C44.9676 95.284 45.0596 95.644 45.2436 95.9C45.4356 96.156 45.6916 96.284 46.0116 96.284ZM51.5076 101.084C51.1156 101.084 50.7676 100.988 50.4636 100.796C50.1596 100.604 49.9236 100.336 49.7556 99.992C49.5876 99.648 49.5036 99.244 49.5036 98.78C49.5036 98.316 49.5876 97.912 49.7556 97.568C49.9236 97.224 50.1596 96.956 50.4636 96.764C50.7676 96.572 51.1156 96.476 51.5076 96.476C51.9156 96.476 52.2676 96.572 52.5636 96.764C52.8676 96.956 53.1036 97.224 53.2716 97.568C53.4396 97.912 53.5236 98.316 53.5236 98.78C53.5236 99.244 53.4396 99.648 53.2716 99.992C53.1036 100.336 52.8676 100.604 52.5636 100.796C52.2676 100.988 51.9156 101.084 51.5076 101.084ZM51.5076 100.244C51.8276 100.244 52.0796 100.116 52.2636 99.86C52.4476 99.604 52.5396 99.244 52.5396 98.78C52.5396 98.316 52.4476 97.956 52.2636 97.7C52.0796 97.444 51.8276 97.316 51.5076 97.316C51.1956 97.316 50.9436 97.444 50.7516 97.7C50.5676 97.948 50.4756 98.308 50.4756 98.78C50.4756 99.252 50.5676 99.616 50.7516 99.872C50.9436 100.12 51.1956 100.244 51.5076 100.244ZM60.9722 101.12C60.3162 101.12 59.6882 101.028 59.0882 100.844C58.4882 100.652 58.0122 100.408 57.6602 100.112L58.2002 98.9C58.5362 99.164 58.9522 99.384 59.4482 99.56C59.9442 99.736 60.4522 99.824 60.9722 99.824C61.4122 99.824 61.7682 99.776 62.0402 99.68C62.3122 99.584 62.5122 99.456 62.6402 99.296C62.7682 99.128 62.8322 98.94 62.8322 98.732C62.8322 98.476 62.7402 98.272 62.5562 98.12C62.3722 97.96 62.1322 97.836 61.8362 97.748C61.5482 97.652 61.2242 97.564 60.8642 97.484C60.5122 97.404 60.1562 97.312 59.7962 97.208C59.4442 97.096 59.1202 96.956 58.8242 96.788C58.5362 96.612 58.3002 96.38 58.1162 96.092C57.9322 95.804 57.8402 95.436 57.8402 94.988C57.8402 94.532 57.9602 94.116 58.2002 93.74C58.4482 93.356 58.8202 93.052 59.3162 92.828C59.8202 92.596 60.4562 92.48 61.2242 92.48C61.7282 92.48 62.2282 92.544 62.7242 92.672C63.2202 92.8 63.6522 92.984 64.0202 93.224L63.5282 94.436C63.1522 94.212 62.7642 94.048 62.3642 93.944C61.9642 93.832 61.5802 93.776 61.2122 93.776C60.7802 93.776 60.4282 93.828 60.1562 93.932C59.8922 94.036 59.6962 94.172 59.5682 94.34C59.4482 94.508 59.3882 94.7 59.3882 94.916C59.3882 95.172 59.4762 95.38 59.6522 95.54C59.8362 95.692 60.0722 95.812 60.3602 95.9C60.6562 95.988 60.9842 96.076 61.3442 96.164C61.7042 96.244 62.0602 96.336 62.4122 96.44C62.7722 96.544 63.0962 96.68 63.3842 96.848C63.6802 97.016 63.9162 97.244 64.0922 97.532C64.2762 97.82 64.3682 98.184 64.3682 98.624C64.3682 99.072 64.2442 99.488 63.9962 99.872C63.7562 100.248 63.3842 100.552 62.8802 100.784C62.3762 101.008 61.7402 101.12 60.9722 101.12ZM68.7831 101.084C68.0711 101.084 67.4471 100.944 66.9111 100.664C66.3831 100.376 65.9711 99.984 65.6751 99.488C65.3871 98.992 65.2431 98.428 65.2431 97.796C65.2431 97.156 65.3831 96.592 65.6631 96.104C65.9511 95.608 66.3431 95.22 66.8391 94.94C67.3431 94.66 67.9151 94.52 68.5551 94.52C69.1791 94.52 69.7351 94.656 70.2231 94.928C70.7111 95.2 71.0951 95.584 71.3751 96.08C71.6551 96.576 71.7951 97.16 71.7951 97.832C71.7951 97.896 71.7911 97.968 71.7831 98.048C71.7831 98.128 71.7791 98.204 71.7711 98.276H66.4311V97.28H70.9791L70.3911 97.592C70.3991 97.224 70.3231 96.9 70.1631 96.62C70.0031 96.34 69.7831 96.12 69.5031 95.96C69.2311 95.8 68.9151 95.72 68.5551 95.72C68.1871 95.72 67.8631 95.8 67.5831 95.96C67.3111 96.12 67.0951 96.344 66.9351 96.632C66.7831 96.912 66.7071 97.244 66.7071 97.628V97.868C66.7071 98.252 66.7951 98.592 66.9711 98.888C67.1471 99.184 67.3951 99.412 67.7151 99.572C68.0351 99.732 68.4031 99.812 68.8191 99.812C69.1791 99.812 69.5031 99.756 69.7911 99.644C70.0791 99.532 70.3351 99.356 70.5591 99.116L71.3631 100.04C71.0751 100.376 70.7111 100.636 70.2711 100.82C69.8391 100.996 69.3431 101.084 68.7831 101.084ZM73.236 101V92.096H74.736V101H73.236ZM79.7167 101.084C79.0047 101.084 78.3807 100.944 77.8447 100.664C77.3167 100.376 76.9047 99.984 76.6087 99.488C76.3207 98.992 76.1767 98.428 76.1767 97.796C76.1767 97.156 76.3167 96.592 76.5967 96.104C76.8847 95.608 77.2767 95.22 77.7727 94.94C78.2767 94.66 78.8487 94.52 79.4887 94.52C80.1127 94.52 80.6687 94.656 81.1567 94.928C81.6447 95.2 82.0287 95.584 82.3087 96.08C82.5887 96.576 82.7287 97.16 82.7287 97.832C82.7287 97.896 82.7247 97.968 82.7167 98.048C82.7167 98.128 82.7127 98.204 82.7047 98.276H77.3647V97.28H81.9127L81.3247 97.592C81.3327 97.224 81.2567 96.9 81.0967 96.62C80.9367 96.34 80.7167 96.12 80.4367 95.96C80.1647 95.8 79.8487 95.72 79.4887 95.72C79.1207 95.72 78.7967 95.8 78.5167 95.96C78.2447 96.12 78.0287 96.344 77.8687 96.632C77.7167 96.912 77.6407 97.244 77.6407 97.628V97.868C77.6407 98.252 77.7287 98.592 77.9047 98.888C78.0807 99.184 78.3287 99.412 78.6487 99.572C78.9687 99.732 79.3367 99.812 79.7527 99.812C80.1127 99.812 80.4367 99.756 80.7247 99.644C81.0127 99.532 81.2687 99.356 81.4927 99.116L82.2967 100.04C82.0087 100.376 81.6447 100.636 81.2047 100.82C80.7727 100.996 80.2767 101.084 79.7167 101.084ZM86.1495 101.084C85.6135 101.084 85.0975 101.016 84.6015 100.88C84.1135 100.736 83.7255 100.564 83.4375 100.364L84.0135 99.224C84.3015 99.408 84.6455 99.56 85.0455 99.68C85.4455 99.8 85.8455 99.86 86.2455 99.86C86.7175 99.86 87.0575 99.796 87.2655 99.668C87.4815 99.54 87.5895 99.368 87.5895 99.152C87.5895 98.976 87.5175 98.844 87.3735 98.756C87.2295 98.66 87.0415 98.588 86.8095 98.54C86.5775 98.492 86.3175 98.448 86.0295 98.408C85.7495 98.368 85.4655 98.316 85.1775 98.252C84.8975 98.18 84.6415 98.08 84.4095 97.952C84.1775 97.816 83.9895 97.636 83.8455 97.412C83.7015 97.188 83.6295 96.892 83.6295 96.524C83.6295 96.116 83.7455 95.764 83.9775 95.468C84.2095 95.164 84.5335 94.932 84.9495 94.772C85.3735 94.604 85.8735 94.52 86.4495 94.52C86.8815 94.52 87.3175 94.568 87.7575 94.664C88.1975 94.76 88.5615 94.896 88.8495 95.072L88.2735 96.212C87.9695 96.028 87.6615 95.904 87.3495 95.84C87.0455 95.768 86.7415 95.732 86.4375 95.732C85.9815 95.732 85.6415 95.8 85.4175 95.936C85.2015 96.072 85.0935 96.244 85.0935 96.452C85.0935 96.644 85.1655 96.788 85.3095 96.884C85.4535 96.98 85.6415 97.056 85.8735 97.112C86.1055 97.168 86.3615 97.216 86.6415 97.256C86.9295 97.288 87.2135 97.34 87.4935 97.412C87.7735 97.484 88.0295 97.584 88.2615 97.712C88.5015 97.832 88.6935 98.004 88.8375 98.228C88.9815 98.452 89.0535 98.744 89.0535 99.104C89.0535 99.504 88.9335 99.852 88.6935 100.148C88.4615 100.444 88.1295 100.676 87.6975 100.844C87.2655 101.004 86.7495 101.084 86.1495 101.084ZM94.2933 101V99.704L94.2093 99.428V97.16C94.2093 96.72 94.0773 96.38 93.8133 96.14C93.5493 95.892 93.1493 95.768 92.6133 95.768C92.2533 95.768 91.8973 95.824 91.5453 95.936C91.2013 96.048 90.9093 96.204 90.6693 96.404L90.0813 95.312C90.4253 95.048 90.8333 94.852 91.3053 94.724C91.7853 94.588 92.2813 94.52 92.7933 94.52C93.7213 94.52 94.4373 94.744 94.9413 95.192C95.4533 95.632 95.7093 96.316 95.7093 97.244V101H94.2933ZM92.2773 101.084C91.7973 101.084 91.3773 101.004 91.0173 100.844C90.6573 100.676 90.3773 100.448 90.1773 100.16C89.9853 99.864 89.8893 99.532 89.8893 99.164C89.8893 98.804 89.9733 98.48 90.1413 98.192C90.3173 97.904 90.6013 97.676 90.9933 97.508C91.3853 97.34 91.9053 97.256 92.5533 97.256H94.4133V98.252H92.6613C92.1493 98.252 91.8053 98.336 91.6293 98.504C91.4533 98.664 91.3653 98.864 91.3653 99.104C91.3653 99.376 91.4733 99.592 91.6893 99.752C91.9053 99.912 92.2053 99.992 92.5893 99.992C92.9573 99.992 93.2853 99.908 93.5733 99.74C93.8693 99.572 94.0813 99.324 94.2093 98.996L94.4613 99.896C94.3173 100.272 94.0573 100.564 93.6813 100.772C93.3133 100.98 92.8453 101.084 92.2773 101.084ZM97.6344 101V94.592H99.1344V101H97.6344ZM98.3904 93.536C98.1104 93.536 97.8784 93.448 97.6944 93.272C97.5184 93.096 97.4304 92.884 97.4304 92.636C97.4304 92.38 97.5184 92.168 97.6944 92C97.8784 91.824 98.1104 91.736 98.3904 91.736C98.6704 91.736 98.8984 91.82 99.0744 91.988C99.2584 92.148 99.3504 92.352 99.3504 92.6C99.3504 92.864 99.2624 93.088 99.0864 93.272C98.9104 93.448 98.6784 93.536 98.3904 93.536Z" fill="white"/>
<path d="M62 76C78.0163 76 91 63.2401 91 47.5C91 31.7599 78.0163 19 62 19C45.9837 19 33 31.7599 33 47.5C33 63.2401 45.9837 76 62 76Z" stroke="white" stroke-width="8" stroke-linecap="round" stroke-linejoin="round"/>
<defs>
<linearGradient id="paint0_linear_10_8" x1="0" y1="60" x2="172.5" y2="60" gradientUnits="userSpaceOnUse">
<stop offset="0.0936243" stop-color="#00AFB9"/>
<stop offset="1" stop-color="#F4F4F4" stop-opacity="0"/>
</linearGradient>
</defs>
</svg>
