<svg width="215" height="37" viewBox="0 0 215 37" fill="none" xmlns="http://www.w3.org/2000/svg">
<path d="M20.56 16.358L20.598 19.284C20.4967 21.1333 20.2687 22.6913 19.914 23.958C19.5593 25.2247 18.8627 26.3773 17.824 27.416C16.1013 29.1387 13.5933 30 10.3 30C6.424 30 3.764 29.4933 2.32 28.48C0.876 27.4413 0.154 25.5793 0.154 22.894V2.944H10.68C13.72 2.944 16.1013 3.80533 17.824 5.528C19.2173 6.92133 20.0407 8.61866 20.294 10.62C20.4713 12.0387 20.56 13.9513 20.56 16.358ZM14.138 23.616C14.6193 23.0333 14.9233 22.2353 15.05 21.222C15.202 20.1833 15.278 18.5747 15.278 16.396C15.278 14.2173 15.202 12.6467 15.05 11.684C14.9233 10.696 14.6193 9.91067 14.138 9.328C13.226 8.21333 11.9087 7.656 10.186 7.656H5.436V22.628C5.436 23.6413 5.778 24.338 6.462 24.718C7.146 25.098 8.362 25.288 10.11 25.288C11.8833 25.288 13.226 24.7307 14.138 23.616ZM41.0868 20.31H28.4328C28.4328 22.286 28.7368 23.73 29.3448 24.642C29.9782 25.554 31.2322 26.01 33.1068 26.01C34.3228 26.01 35.2222 25.63 35.8048 24.87C36.3875 24.0847 36.6788 23.3373 36.6788 22.628H41.1248C41.1248 25.3387 40.3902 27.3273 38.9208 28.594C37.4768 29.8607 35.5515 30.494 33.1448 30.494C30.7635 30.494 28.9142 30.152 27.5968 29.468C24.8862 28.0747 23.5308 24.376 23.5308 18.372C23.5308 14.8 24.3035 12.1907 25.8488 10.544C27.3942 8.872 29.7502 8.036 32.9168 8.036C38.4142 8.036 41.1628 11.0887 41.1628 17.194C41.1628 17.8527 41.1375 18.8913 41.0868 20.31ZM28.5468 16.928H36.6788C36.6788 15.256 36.3622 14.04 35.7288 13.28C35.0955 12.52 34.1202 12.14 32.8028 12.14C31.5108 12.14 30.4722 12.5327 29.6868 13.318C28.9268 14.078 28.5468 15.2813 28.5468 16.928ZM60.5372 23.996V24.566C60.3852 26.466 59.5745 27.8973 58.1052 28.86C56.6612 29.8227 54.8499 30.304 52.6712 30.304C49.4539 30.304 47.1992 29.7213 45.9072 28.556C44.7165 27.492 44.1212 25.9213 44.1212 23.844V23.388H48.6052C48.6052 24.5533 48.9092 25.3513 49.5172 25.782C50.1252 26.2127 51.1765 26.428 52.6712 26.428C54.6979 26.428 55.7112 25.6933 55.7112 24.224C55.7112 23.008 55.3565 22.1973 54.6472 21.792C54.3179 21.5893 53.8999 21.4373 53.3932 21.336L49.5552 20.69C46.2112 20.158 44.5392 18.068 44.5392 14.42C44.5392 12.3933 45.2739 10.8227 46.7432 9.708C48.2379 8.568 50.1252 7.998 52.4052 7.998C57.5985 7.998 60.1952 10.24 60.1952 14.724V15.218H55.9012C55.8505 14.0273 55.5339 13.2167 54.9512 12.786C54.3685 12.3553 53.5452 12.14 52.4812 12.14C51.4425 12.14 50.6572 12.3553 50.1252 12.786C49.5932 13.1913 49.3272 13.6473 49.3272 14.154C49.3272 15.598 49.9099 16.4213 51.0752 16.624L55.6732 17.46C58.9159 18.068 60.5372 20.2467 60.5372 23.996ZM67.1863 0.0179987C68.377 0.0179987 69.1496 0.207999 69.5043 0.587998C69.859 0.942665 70.0363 1.71533 70.0363 2.906C70.0363 4.07133 69.8463 4.844 69.4663 5.224C69.1116 5.57867 68.339 5.756 67.1483 5.756C65.983 5.756 65.2103 5.566 64.8303 5.186C64.4756 4.806 64.2983 4.03333 64.2983 2.868C64.2983 1.70266 64.4756 0.942665 64.8303 0.587998C65.2103 0.207999 65.9956 0.0179987 67.1863 0.0179987ZM69.6183 30H64.6783V9.1H69.6183V30ZM85.7831 8.454L90.7231 8.15V29.012C90.7231 31.4187 90.0391 33.2553 88.6711 34.522C87.3285 35.814 85.3271 36.46 82.6671 36.46C80.6151 36.46 78.8165 36.0547 77.2711 35.244C76.4605 34.8387 75.8145 34.2307 75.3331 33.42C74.8518 32.6093 74.6111 31.6467 74.6111 30.532L79.2091 30.304C79.2091 31.0133 79.4625 31.52 79.9691 31.824C80.4758 32.128 81.3371 32.28 82.5531 32.28C83.7945 32.28 84.6305 31.976 85.0611 31.368C85.5171 30.76 85.7451 29.886 85.7451 28.746L85.9351 25.478L80.6151 28.328C77.7018 28.328 75.7385 27.34 74.7251 25.364C73.8131 23.616 73.3571 21.4753 73.3571 18.942C73.3571 15.9273 73.5851 13.7993 74.0411 12.558C74.5225 11.19 75.2065 10.202 76.0931 9.594C77.2331 8.834 78.7278 8.454 80.5771 8.454H85.7831ZM85.7831 21.184V12.9H82.0211C80.6025 12.9 79.6271 13.3813 79.0951 14.344C78.5631 15.3067 78.2971 16.6493 78.2971 18.372C78.2971 20.0947 78.5631 21.3233 79.0951 22.058C79.6525 22.7673 80.6278 23.122 82.0211 23.122L85.7831 21.184ZM113.055 30H108.115V16.13C108.115 14.8887 107.862 14.04 107.355 13.584C106.849 13.128 106.139 12.9 105.227 12.9L100.781 14.762V30H95.8413V8.302H99.5273L100.667 10.886L106.747 8.074C108.445 8.074 109.914 8.70733 111.155 9.974C112.422 11.2153 113.055 13.0393 113.055 15.446V30Z" fill="black"/>
<path d="M20.56 16.358L20.598 19.284C20.4967 21.1333 20.2687 22.6913 19.914 23.958C19.5593 25.2247 18.8627 26.3773 17.824 27.416C16.1013 29.1387 13.5933 30 10.3 30C6.424 30 3.764 29.4933 2.32 28.48C0.876 27.4413 0.154 25.5793 0.154 22.894V2.944H10.68C13.72 2.944 16.1013 3.80533 17.824 5.528C19.2173 6.92133 20.0407 8.61866 20.294 10.62C20.4713 12.0387 20.56 13.9513 20.56 16.358ZM14.138 23.616C14.6193 23.0333 14.9233 22.2353 15.05 21.222C15.202 20.1833 15.278 18.5747 15.278 16.396C15.278 14.2173 15.202 12.6467 15.05 11.684C14.9233 10.696 14.6193 9.91067 14.138 9.328C13.226 8.21333 11.9087 7.656 10.186 7.656H5.436V22.628C5.436 23.6413 5.778 24.338 6.462 24.718C7.146 25.098 8.362 25.288 10.11 25.288C11.8833 25.288 13.226 24.7307 14.138 23.616ZM41.0868 20.31H28.4328C28.4328 22.286 28.7368 23.73 29.3448 24.642C29.9782 25.554 31.2322 26.01 33.1068 26.01C34.3228 26.01 35.2222 25.63 35.8048 24.87C36.3875 24.0847 36.6788 23.3373 36.6788 22.628H41.1248C41.1248 25.3387 40.3902 27.3273 38.9208 28.594C37.4768 29.8607 35.5515 30.494 33.1448 30.494C30.7635 30.494 28.9142 30.152 27.5968 29.468C24.8862 28.0747 23.5308 24.376 23.5308 18.372C23.5308 14.8 24.3035 12.1907 25.8488 10.544C27.3942 8.872 29.7502 8.036 32.9168 8.036C38.4142 8.036 41.1628 11.0887 41.1628 17.194C41.1628 17.8527 41.1375 18.8913 41.0868 20.31ZM28.5468 16.928H36.6788C36.6788 15.256 36.3622 14.04 35.7288 13.28C35.0955 12.52 34.1202 12.14 32.8028 12.14C31.5108 12.14 30.4722 12.5327 29.6868 13.318C28.9268 14.078 28.5468 15.2813 28.5468 16.928ZM60.5372 23.996V24.566C60.3852 26.466 59.5745 27.8973 58.1052 28.86C56.6612 29.8227 54.8499 30.304 52.6712 30.304C49.4539 30.304 47.1992 29.7213 45.9072 28.556C44.7165 27.492 44.1212 25.9213 44.1212 23.844V23.388H48.6052C48.6052 24.5533 48.9092 25.3513 49.5172 25.782C50.1252 26.2127 51.1765 26.428 52.6712 26.428C54.6979 26.428 55.7112 25.6933 55.7112 24.224C55.7112 23.008 55.3565 22.1973 54.6472 21.792C54.3179 21.5893 53.8999 21.4373 53.3932 21.336L49.5552 20.69C46.2112 20.158 44.5392 18.068 44.5392 14.42C44.5392 12.3933 45.2739 10.8227 46.7432 9.708C48.2379 8.568 50.1252 7.998 52.4052 7.998C57.5985 7.998 60.1952 10.24 60.1952 14.724V15.218H55.9012C55.8505 14.0273 55.5339 13.2167 54.9512 12.786C54.3685 12.3553 53.5452 12.14 52.4812 12.14C51.4425 12.14 50.6572 12.3553 50.1252 12.786C49.5932 13.1913 49.3272 13.6473 49.3272 14.154C49.3272 15.598 49.9099 16.4213 51.0752 16.624L55.6732 17.46C58.9159 18.068 60.5372 20.2467 60.5372 23.996ZM67.1863 0.0179987C68.377 0.0179987 69.1496 0.207999 69.5043 0.587998C69.859 0.942665 70.0363 1.71533 70.0363 2.906C70.0363 4.07133 69.8463 4.844 69.4663 5.224C69.1116 5.57867 68.339 5.756 67.1483 5.756C65.983 5.756 65.2103 5.566 64.8303 5.186C64.4756 4.806 64.2983 4.03333 64.2983 2.868C64.2983 1.70266 64.4756 0.942665 64.8303 0.587998C65.2103 0.207999 65.9956 0.0179987 67.1863 0.0179987ZM69.6183 30H64.6783V9.1H69.6183V30ZM85.7831 8.454L90.7231 8.15V29.012C90.7231 31.4187 90.0391 33.2553 88.6711 34.522C87.3285 35.814 85.3271 36.46 82.6671 36.46C80.6151 36.46 78.8165 36.0547 77.2711 35.244C76.4605 34.8387 75.8145 34.2307 75.3331 33.42C74.8518 32.6093 74.6111 31.6467 74.6111 30.532L79.2091 30.304C79.2091 31.0133 79.4625 31.52 79.9691 31.824C80.4758 32.128 81.3371 32.28 82.5531 32.28C83.7945 32.28 84.6305 31.976 85.0611 31.368C85.5171 30.76 85.7451 29.886 85.7451 28.746L85.9351 25.478L80.6151 28.328C77.7018 28.328 75.7385 27.34 74.7251 25.364C73.8131 23.616 73.3571 21.4753 73.3571 18.942C73.3571 15.9273 73.5851 13.7993 74.0411 12.558C74.5225 11.19 75.2065 10.202 76.0931 9.594C77.2331 8.834 78.7278 8.454 80.5771 8.454H85.7831ZM85.7831 21.184V12.9H82.0211C80.6025 12.9 79.6271 13.3813 79.0951 14.344C78.5631 15.3067 78.2971 16.6493 78.2971 18.372C78.2971 20.0947 78.5631 21.3233 79.0951 22.058C79.6525 22.7673 80.6278 23.122 82.0211 23.122L85.7831 21.184ZM113.055 30H108.115V16.13C108.115 14.8887 107.862 14.04 107.355 13.584C106.849 13.128 106.139 12.9 105.227 12.9L100.781 14.762V30H95.8413V8.302H99.5273L100.667 10.886L106.747 8.074C108.445 8.074 109.914 8.70733 111.155 9.974C112.422 11.2153 113.055 13.0393 113.055 15.446V30Z" fill="#96CEB4"/>
<path d="M132.938 30H129.632L128.112 27.378L122.83 30.228C119.892 30.228 117.916 29.164 116.902 27.036C116.396 25.9973 116.041 24.8827 115.838 23.692C115.661 22.476 115.572 21.222 115.572 19.93C115.572 18.6127 115.585 17.65 115.61 17.042C115.636 16.4087 115.699 15.6867 115.8 14.876C115.902 14.04 116.041 13.3433 116.218 12.786C116.421 12.2287 116.7 11.6587 117.054 11.076C117.409 10.468 117.84 9.98667 118.346 9.632C119.486 8.84667 120.968 8.454 122.792 8.454H127.998L132.938 8.15V30ZM127.998 23.084V12.9H124.236C122.843 12.9 121.868 13.432 121.31 14.496C120.778 15.56 120.512 17.156 120.512 19.284C120.512 21.3867 120.766 22.8687 121.272 23.73C121.804 24.5913 122.792 25.022 124.236 25.022L127.998 23.084ZM147.575 30H144.497C142.623 30 141.191 29.4427 140.203 28.328C139.241 27.2133 138.759 25.8833 138.759 24.338V12.938H136.669V9.176H138.759V4.92H143.699V9.176H147.195V12.938H143.699V24.034C143.699 25.2247 144.269 25.82 145.409 25.82H147.575V30ZM167.889 30H164.203L163.063 27.416L156.983 30.228C155.285 30.228 153.803 29.6073 152.537 28.366C151.295 27.0993 150.675 25.2627 150.675 22.856V8.302H155.615V21.792C155.615 24.1987 156.577 25.402 158.503 25.402L162.949 23.008V8.302H167.889V30ZM184.96 8.378L183.592 13.242C183.212 13.09 182.781 13.014 182.3 13.014C181.033 13.014 179.475 13.5587 177.626 14.648V30H172.686V8.302H176.372L177.512 10.202L182.756 8.036C183.009 8.01067 183.351 7.998 183.782 7.998C184.213 7.998 184.605 8.12467 184.96 8.378ZM204.517 20.31H191.863C191.863 22.286 192.167 23.73 192.775 24.642C193.408 25.554 194.662 26.01 196.537 26.01C197.753 26.01 198.652 25.63 199.235 24.87C199.817 24.0847 200.109 23.3373 200.109 22.628H204.555C204.555 25.3387 203.82 27.3273 202.351 28.594C200.907 29.8607 198.981 30.494 196.575 30.494C194.193 30.494 192.344 30.152 191.027 29.468C188.316 28.0747 186.961 24.376 186.961 18.372C186.961 14.8 187.733 12.1907 189.279 10.544C190.824 8.872 193.18 8.036 196.347 8.036C201.844 8.036 204.593 11.0887 204.593 17.194C204.593 17.8527 204.567 18.8913 204.517 20.31ZM191.977 16.928H200.109C200.109 15.256 199.792 14.04 199.159 13.28C198.525 12.52 197.55 12.14 196.233 12.14C194.941 12.14 193.902 12.5327 193.117 13.318C192.357 14.078 191.977 15.2813 191.977 16.928ZM214.277 24.908C214.682 25.288 214.885 26.1113 214.885 27.378C214.885 28.6447 214.682 29.4807 214.277 29.886C213.897 30.2913 213.074 30.494 211.807 30.494C210.54 30.494 209.704 30.2913 209.299 29.886C208.894 29.4807 208.691 28.6447 208.691 27.378C208.691 26.1113 208.894 25.288 209.299 24.908C209.704 24.5027 210.54 24.3 211.807 24.3C213.074 24.3 213.897 24.5027 214.277 24.908Z" fill="black"/>
</svg>
